<?xml version="1.0" encoding="utf-8"?>
<!-- Generator: Adobe Illustrator 24.1.1, SVG Export Plug-In . SVG Version: 6.00 Build 0)  -->
<svg version="1.1" id="livetype" xmlns="http://www.w3.org/2000/svg" xmlns:xlink="http://www.w3.org/1999/xlink" x="0px" y="0px"
	 viewBox="0 0 769.9 269" style="enable-background:new 0 0 769.9 269;" xml:space="preserve">
<style type="text/css">
	.st0{fill:#A6A6A6;}
	.st1{fill:#FFFFFF;}
</style>
<g>
	<g>
		<g>
			<path class="st0" d="M699.3,10H68.8c-2.3,0-4.6,0-6.9,0c-1.9,0-3.8,0-5.8,0.1c-4.2,0-8.4,0.4-12.6,1.1c-4.1,0.7-8.2,2-11.9,3.9
				c-3.7,1.9-7.2,4.4-10.1,7.4c-3,3-5.5,6.4-7.4,10.2c-1.9,3.8-3.2,7.8-3.9,11.9c-0.7,4.1-1.1,8.3-1.1,12.5C9,59.1,9,61,9,62.9
				v144.9c0,1.9,0,3.8,0.1,5.8c0,4.2,0.4,8.4,1.1,12.5c0.7,4.2,2,8.2,3.9,11.9c1.9,3.7,4.4,7.2,7.4,10.1c3,3,6.4,5.5,10.1,7.4
				c3.8,1.9,7.8,3.2,11.9,4c4.2,0.7,8.4,1.1,12.6,1.1c1.9,0,3.8,0.1,5.8,0.1c2.3,0,4.6,0,6.9,0h630.5c2.3,0,4.5,0,6.8,0
				c1.9,0,3.9,0,5.8-0.1c4.2-0.1,8.4-0.4,12.5-1.1c4.2-0.7,8.2-2.1,12-4c3.8-1.9,7.2-4.4,10.1-7.4c3-3,5.5-6.4,7.4-10.1
				c1.9-3.8,3.2-7.8,3.9-11.9c0.7-4.1,1.1-8.3,1.2-12.5c0-1.9,0-3.8,0-5.8c0-2.3,0-4.5,0-6.9V69.8c0-2.3,0-4.6,0-6.8
				c0-1.9,0-3.8,0-5.8c-0.1-4.2-0.5-8.4-1.2-12.5c-0.7-4.2-2-8.2-3.9-11.9c-3.9-7.5-10-13.7-17.5-17.5c-3.8-1.9-7.8-3.2-12-3.9
				c-4.1-0.7-8.3-1.1-12.5-1.1c-1.9,0-3.9-0.1-5.8-0.1C703.8,10,701.5,10,699.3,10L699.3,10z"/>
			<path d="M61.9,255.2c-1.9,0-3.8,0-5.7-0.1c-3.9-0.1-7.8-0.4-11.7-1c-3.6-0.6-7.1-1.8-10.4-3.4c-3.2-1.6-6.2-3.8-8.8-6.4
				c-2.6-2.5-4.8-5.5-6.4-8.8c-1.7-3.3-2.8-6.8-3.4-10.4c-0.6-3.9-1-7.8-1-11.8c0-1.3-0.1-5.7-0.1-5.7V62.9c0,0,0.1-4.3,0.1-5.6
				c0-3.9,0.4-7.9,1-11.7c0.6-3.6,1.7-7.1,3.4-10.4c1.6-3.2,3.8-6.2,6.4-8.8c2.6-2.6,5.5-4.7,8.8-6.4c3.3-1.6,6.8-2.8,10.4-3.4
				c3.9-0.6,7.8-1,11.8-1l5.7-0.1H706l5.7,0.1c3.9,0,7.8,0.4,11.6,1c3.6,0.6,7.2,1.8,10.5,3.4c6.5,3.4,11.8,8.7,15.1,15.2
				c1.6,3.3,2.8,6.7,3.4,10.3c0.7,3.9,1,7.9,1.1,11.8c0,1.8,0,3.7,0,5.6c0,2.4,0,4.6,0,6.8v131.2c0,2.3,0,4.5,0,6.7c0,2,0,3.9,0,5.8
				c-0.1,3.9-0.4,7.8-1.1,11.6c-0.6,3.6-1.7,7.2-3.4,10.5c-1.7,3.2-3.8,6.1-6.4,8.7c-2.6,2.6-5.5,4.8-8.8,6.4
				c-3.3,1.7-6.8,2.8-10.5,3.4c-3.9,0.6-7.8,1-11.7,1c-1.8,0-3.8,0.1-5.6,0.1l-6.8,0L61.9,255.2z"/>
		</g>
		<g id="_Group_">
			<g id="_Group_2">
				<g id="_Group_3">
					<path id="_Path_" class="st1" d="M164.2,137.2c0.1-10.6,5.7-20.5,14.8-26c-5.7-8.2-15-13.2-25-13.5
						c-10.5-1.1-20.7,6.3-26.1,6.3c-5.5,0-13.7-6.2-22.6-6c-11.7,0.4-22.3,6.9-28,17.1c-12.1,21-3.1,51.8,8.5,68.8
						c5.8,8.3,12.6,17.6,21.5,17.3c8.7-0.4,11.9-5.5,22.4-5.5c10.4,0,13.4,5.5,22.5,5.3c9.3-0.2,15.2-8.3,20.8-16.7
						c4.2-5.9,7.4-12.5,9.5-19.4C171.5,160.1,164.3,149.3,164.2,137.2z"/>
					<path id="_Path_2" class="st1" d="M147.1,86.5c5.1-6.1,7.6-14,7-21.9c-7.8,0.8-14.9,4.5-20.1,10.4c-5.1,5.8-7.7,13.4-7.2,21.1
						C134.7,96.2,142.2,92.7,147.1,86.5z"/>
				</g>
			</g>
			<g>
				<path class="st1" d="M274.1,180.1h-29.7l-7.1,21h-12.6l28.1-77.8h13.1l28.1,77.8h-12.8L274.1,180.1z M247.5,170.4h23.5
					l-11.6-34.1h-0.3L247.5,170.4z"/>
				<path class="st1" d="M354.7,172.8c0,17.6-9.4,29-23.7,29c-7.4,0.4-14.3-3.5-17.9-9.9h-0.3v28.1h-11.6v-75.5h11.3v9.4h0.2
					c3.7-6.4,10.7-10.3,18.1-10C345.2,143.8,354.7,155.2,354.7,172.8z M342.7,172.8c0-11.5-5.9-19-15-19c-8.9,0-14.9,7.7-14.9,19
					c0,11.4,6,19.1,14.9,19.1C336.8,191.9,342.7,184.4,342.7,172.8z"/>
				<path class="st1" d="M417.2,172.8c0,17.6-9.4,29-23.7,29c-7.4,0.4-14.3-3.5-17.9-9.9h-0.3v28.1h-11.6v-75.5H375v9.4h0.2
					c3.7-6.4,10.7-10.3,18.1-10C407.7,143.8,417.2,155.2,417.2,172.8z M405.2,172.8c0-11.5-5.9-19-15-19c-8.9,0-14.9,7.7-14.9,19
					c0,11.4,6,19.1,14.9,19.1C399.3,191.9,405.2,184.4,405.2,172.8L405.2,172.8z"/>
				<path class="st1" d="M458.4,179.5c0.9,7.7,8.4,12.8,18.6,12.8c9.8,0,16.9-5.1,16.9-12c0-6-4.3-9.7-14.3-12.1l-10.1-2.4
					c-14.3-3.5-20.9-10.1-20.9-21c0-13.4,11.7-22.7,28.3-22.7c16.4,0,27.7,9.2,28.1,22.7h-11.8c-0.7-7.8-7.1-12.5-16.5-12.5
					c-9.4,0-15.8,4.7-15.8,11.6c0,5.5,4.1,8.7,14.1,11.2l8.6,2.1c16,3.8,22.6,10.2,22.6,21.6c0,14.6-11.6,23.7-30,23.7
					c-17.3,0-28.9-8.9-29.7-23L458.4,179.5z"/>
				<path class="st1" d="M531.4,131v13.4h10.8v9.2h-10.8v31.3c0,4.9,2.2,7.1,6.9,7.1c1.3,0,2.6-0.1,3.8-0.3v9.2
					c-2.1,0.4-4.3,0.6-6.5,0.5c-11.5,0-16-4.3-16-15.3v-32.5h-8.3v-9.2h8.3V131H531.4z"/>
				<path class="st1" d="M548.4,172.8c0-17.9,10.5-29.1,26.9-29.1c16.5,0,26.9,11.2,26.9,29.1c0,17.9-10.4,29.1-26.9,29.1
					C558.8,201.8,548.4,190.7,548.4,172.8z M590.4,172.8c0-12.2-5.6-19.5-15.1-19.5s-15,7.3-15,19.5c0,12.3,5.6,19.5,15,19.5
					S590.4,185.1,590.4,172.8L590.4,172.8z"/>
				<path class="st1" d="M611.9,144.4H623v9.7h0.3c1.5-6.2,7.2-10.5,13.6-10.3c1.3,0,2.7,0.1,4,0.4v10.9c-1.7-0.5-3.5-0.8-5.2-0.7
					c-6.5-0.3-11.9,4.8-12.2,11.3c0,0.6,0,1.2,0.1,1.8v33.7h-11.6L611.9,144.4z"/>
				<path class="st1" d="M694.6,184.5c-1.6,10.3-11.6,17.4-24.4,17.4c-16.5,0-26.8-11.1-26.8-28.8c0-17.8,10.3-29.3,26.3-29.3
					c15.7,0,25.6,10.8,25.6,28v4h-40.1v0.7c-0.7,8.1,5.3,15.3,13.4,16c0.6,0.1,1.2,0.1,1.8,0c5.7,0.5,11-2.7,13.1-8L694.6,184.5z
					 M655.2,167.5h28.4c0.4-7.5-5.3-14-12.9-14.4c-0.4,0-0.7,0-1.1,0c-7.9,0-14.4,6.3-14.5,14.3
					C655.2,167.5,655.2,167.5,655.2,167.5z"/>
			</g>
		</g>
	</g>
	<g id="_Group_4">
		<g>
			<path class="st1" d="M231,83.4c0-12.1,6.5-19.6,16.8-19.6c7.8-0.4,14.5,5.3,15.6,13h-5.8c-1-4.5-5.1-7.7-9.8-7.5
				c-6.7,0-10.9,5.5-10.9,14.2c0,8.7,4.2,14.2,10.9,14.2c4.5,0.3,8.6-2.6,9.7-6.9h5.8c-1.2,7.5-7.9,12.9-15.5,12.3
				C237.5,103,231,95.5,231,83.4z"/>
			<path class="st1" d="M269.8,88c-0.7-7.4,4.7-13.9,12-14.6s13.9,4.7,14.6,12c0.1,0.8,0.1,1.7,0,2.5c0.7,7.4-4.7,13.9-12,14.6
				c-7.4,0.7-13.9-4.7-14.6-12C269.7,89.7,269.7,88.9,269.8,88z M290.7,88c0-6.1-2.7-9.7-7.6-9.7c-4.8,0-7.6,3.6-7.6,9.7
				c0,6.2,2.7,9.7,7.6,9.7C287.9,97.7,290.7,94.1,290.7,88z"/>
			<path class="st1" d="M303.9,73.9h5.4v4.5h0.4c1.4-3.3,4.8-5.3,8.4-5c5.1-0.4,9.5,3.4,9.8,8.5c0.1,0.7,0,1.4-0.1,2v18.3h-5.6V85.2
				c0-4.5-2-6.8-6.1-6.8c-3.6-0.2-6.6,2.6-6.8,6.2c0,0.3,0,0.7,0,1v16.5h-5.6L303.9,73.9z"/>
			<path class="st1" d="M346.8,73.4c6.3,0,10.5,3,11,7.9h-5.3c-0.5-2.1-2.5-3.4-5.7-3.4c-3.1,0-5.5,1.5-5.5,3.7
				c0,1.7,1.4,2.7,4.5,3.4l4.7,1.1c5.4,1.2,7.9,3.6,7.9,7.7c0,5.3-5,8.9-11.7,8.9c-6.7,0-11.1-3-11.6-8h5.6c1,2.4,3.5,3.9,6.1,3.5
				c3.5,0,5.9-1.6,5.9-3.8c0-1.7-1.3-2.8-4.1-3.4l-4.9-1.1c-5.4-1.3-7.9-3.7-7.9-7.9C335.8,76.9,340.4,73.4,346.8,73.4z"/>
			<path class="st1" d="M365.4,69.2l6.5-8.9h6.5l-7.3,8.9H365.4z M366,73.9h5.5v28.2H366V73.9z"/>
			<path class="st1" d="M380.2,104.9h5.7c0.5,2,2.8,3.4,6.6,3.4c4.6,0,7.4-2.2,7.4-5.9V97h-0.4c-1.8,3.1-5.1,4.9-8.7,4.7
				c-7.2,0-11.7-5.6-11.7-14c0-8.6,4.5-14.3,11.7-14.3c3.7-0.1,7.1,1.8,8.9,5h0.4v-4.5h5.3v28.5c0,6.5-5.1,10.5-13,10.5
				C385.4,112.9,380.8,109.7,380.2,104.9z M400,87.7c0-5.6-2.9-9.2-7.7-9.2c-4.8,0-7.5,3.6-7.5,9.2c0,5.6,2.7,9.2,7.5,9.2
				C397.1,96.9,400,93.3,400,87.7z"/>
			<path class="st1" d="M438.1,102.1h-5.4v-4.5h-0.4c-1.5,3.3-4.9,5.4-8.5,5c-5,0.4-9.4-3.4-9.8-8.5c0-0.7,0-1.3,0.1-2V73.9h5.6
				v16.9c0,4.6,1.8,6.7,5.9,6.7c3.5,0.3,6.6-2.3,7-5.8c0-0.4,0-0.9,0-1.3V73.9h5.6L438.1,102.1z"/>
			<path class="st1" d="M470.8,94.5c-1.6,5.3-6.7,8.8-12.2,8.2c-7.1,0.2-13-5.4-13.2-12.5c0-0.7,0-1.4,0.1-2.1
				c-1-7.1,4-13.7,11.2-14.6c0.6-0.1,1.2-0.1,1.8-0.1c7.9,0,12.6,5.4,12.6,14.2v1.9h-19.9v0.3c-0.3,4.1,2.7,7.7,6.8,8.1
				c0.2,0,0.5,0,0.7,0c2.7,0.3,5.4-1,6.7-3.4L470.8,94.5z M451.3,85.4h14.3c0.3-3.8-2.5-7-6.3-7.3c-0.2,0-0.4,0-0.7,0
				c-4-0.1-7.3,3.1-7.3,7.1C451.3,85.3,451.3,85.3,451.3,85.4z"/>
			<path class="st1" d="M478.9,62.9h5.6v39.2h-5.6V62.9z"/>
			<path class="st1" d="M492.2,88c-0.7-7.4,4.7-13.9,12-14.6c7.4-0.7,13.9,4.7,14.6,12c0.1,0.8,0.1,1.7,0,2.5
				c0.7,7.4-4.7,13.9-12,14.6s-13.9-4.7-14.6-12C492.2,89.7,492.2,88.9,492.2,88z M513.1,88c0-6.1-2.7-9.7-7.6-9.7
				c-4.8,0-7.6,3.6-7.6,9.7c0,6.2,2.7,9.7,7.6,9.7C510.4,97.7,513.1,94.1,513.1,88z"/>
			<path class="st1" d="M565.5,94.5c-1.6,5.3-6.7,8.8-12.2,8.2c-7.1,0.2-13-5.4-13.2-12.5c0-0.7,0-1.4,0.1-2.1
				c-1-7.1,4-13.7,11.2-14.6c0.6-0.1,1.2-0.1,1.8-0.1c7.9,0,12.6,5.4,12.6,14.2v1.9h-19.9v0.3c-0.3,4.1,2.7,7.7,6.8,8.1
				c0.2,0,0.5,0,0.7,0c2.7,0.3,5.4-1,6.7-3.4L565.5,94.5z M545.9,85.4h14.3c0.3-3.8-2.5-7-6.3-7.3c-0.2,0-0.4,0-0.7,0
				c-4-0.1-7.3,3.1-7.3,7.1C545.9,85.3,545.9,85.3,545.9,85.4L545.9,85.4z"/>
			<path class="st1" d="M573.3,73.9h5.4v4.5h0.4c1.4-3.3,4.8-5.3,8.4-5c5.1-0.4,9.5,3.4,9.8,8.5c0.1,0.7,0,1.4-0.1,2v18.3h-5.6V85.2
				c0-4.5-2-6.8-6.1-6.8c-3.6-0.2-6.6,2.6-6.8,6.2c0,0.3,0,0.7,0,1v16.5h-5.6L573.3,73.9z"/>
			<path class="st1" d="M645.1,94.5c-1.6,5.3-6.7,8.8-12.2,8.2c-7.1,0.2-13-5.4-13.2-12.5c0-0.7,0-1.4,0.1-2.1
				c-1-7.1,4-13.7,11.2-14.6c0.6-0.1,1.2-0.1,1.8-0.1c7.9,0,12.6,5.4,12.6,14.2v1.9h-19.9v0.3c-0.3,4.1,2.7,7.7,6.8,8.1
				c0.2,0,0.5,0,0.7,0c2.7,0.3,5.4-1,6.7-3.4L645.1,94.5z M625.5,85.4h14.3c0.3-3.8-2.5-7-6.3-7.3c-0.2,0-0.4,0-0.7,0
				c-4-0.1-7.3,3.1-7.3,7.1C625.5,85.3,625.5,85.3,625.5,85.4L625.5,85.4z"/>
			<path class="st1" d="M653.2,62.9h5.6v39.2h-5.6V62.9z"/>
		</g>
	</g>
</g>
</svg>
